<svg style="position: absolute; width: 0; height: 0;" width="0" height="0" version="1.1" xmlns="http://www.w3.org/2000/svg" xmlns:xlink="http://www.w3.org/1999/xlink">
    <defs>
        <symbol id="light" viewBox="0 0 512 512">
            <path fill-rule="evenodd" d="M180.98 371.5l-114.05-.25h-.01a3.37 3.37 0 0 0-3.35 3.37c0 1.86 1.5 3.37 3.34 3.38l114.06.26c1.85 0 3.35-1.5 3.35-3.37.01-1.86-1.49-3.38-3.34-3.38zM181.18 330.86H66.3a3.36 3.36 0 0 0-3.35 3.37c0 1.87 1.5 3.38 3.35 3.38h114.89a3.36 3.36 0 0 0 3.35-3.38c0-1.86-1.5-3.37-3.36-3.37zM154.16 418.6H94.05a3.36 3.36 0 0 0-3.36 3.38c0 1.87 1.5 3.38 3.36 3.38h60.11a3.36 3.36 0 0 0 3.35-3.38c0-1.86-1.5-3.37-3.35-3.37zM210.65 38.3C188.98 17.37 158.5 5.7 124.7 5.4l-1.41-.01c-33.64.32-64.01 11.99-85.68 32.93C14.88 60.27 3.35 87.66 3.35 119.7c0 34.11 12.81 66.86 34.04 87.36.3.35 29.81 35.5 29.64 79.7a3.36 3.36 0 0 0 3.33 3.39h.02c1.84 0 3.34-1.5 3.35-3.36.18-46.77-29.97-82.63-31.47-84.36-20.17-19.5-32.2-50.42-32.2-82.73 0-30.56 10.52-55.59 32.2-76.52C62.82 23.3 91.83 12.29 124 12.13c32.33.15 61.44 11.17 82 31.05 20.6 19.89 31.95 48.28 31.95 79.95 0 31.68-11.04 59.1-32.14 79.5-1.32 1.52-32.18 37.57-32 84.37 0 1.85 1.5 3.36 3.35 3.36 1.78-.21 3.36-1.52 3.35-3.4-.17-44.18 30.04-79.53 30.14-79.67 22.24-21.49 34-50.6 34-84.16 0-33.52-12.08-63.65-34-84.82z" transform="translate(136 40)"></path>
        </symbol>
        <symbol id="temperature" viewBox="0 0 512 512">
            <g fill-rule="evenodd">
                <g stroke-width="0">
                    <path d="M98.27 9.3c25.58 0 53.3 15.95 53.3 41.74V265.33l3.18 2.26c22.44 15.24 34.22 39.06 34.22 68.88 0 46.8-38.25 82.1-88.93 82.1-50.68 0-88.91-35.3-88.91-82.1 0-32.32 10.15-54.91 31-69.05l3.34-2.27V50.85c0-25.67 27.46-41.55 52.8-41.55zm0-7.58c-30.45 0-60.38 19.52-60.38 49.13v210.28C15.16 278.1 3.56 304.57 3.56 336.45c0 51.84 43.17 89.7 96.47 89.7 53.26 0 96.6-37.86 96.6-89.7 0-31.87-14.74-58.17-37.47-75.14V51.04c0-29.62-30.45-49.32-60.9-49.32z" transform="translate(112 40)"></path>
                    <path d="M121.26 49.26V278.1c22.74 5.96 34.25 26.75 34.25 51.73 0 29.62-24.6 53.63-55.05 53.63-30.45 0-55.16-23.32-55.16-52.93 0-24.98 9.7-46.14 30.5-52.1V49.27h45.46zm.26-7.58H75.8a7.58 7.58 0 0 0-7.58 7.58v223.85c-19.19 8.29-30.46 29.27-30.46 57.4 0 33.38 28.16 60.53 62.77 60.53 34.57 0 62.57-27.46 62.57-61.22 0-28.75-11.51-49.3-34.25-57.31V49.26a7.47 7.47 0 0 0-7.45-7.58h.13z" transform="translate(112 40)"></path>
                </g>
                <path fill="none" stroke-width="7.58" d="M177.57 45.22l106.14-.05M177.07 150.13h106.38M177.57 247.82h106.38M177.86 180.27h60.47M177.43 217.8h60.9M177.57 82.58h61M177.86 112.6h60.41" transform="translate(112 40)"></path>
            </g>
        </symbol>
        <symbol id="curtains" viewBox="0 0 512 512">
            <g fill-rule="evenodd">
                <path stroke-width="0" d="M296 8v416H8V8h288zm8-8H0v432h304V0z" transform="translate(104 40)"></path>
                <path fill="none" stroke-width="8" d="M155.71 3.75l.15 428.25M4.34 219.25h296.14" transform="translate(104 40)"></path>
                <path stroke-width="0" d="M303.71 216.17L7.8 216.17 7.71 0 303.62 0z" transform="translate(104 40)" opacity=".25"></path>
            </g>
        </symbol>
    </defs>
</svg>